<svg xmlns="http://www.w3.org/2000/svg" width="203" height="46" viewBox="0 0 203 46" fill="#142129">
<path fill-rule="evenodd" clip-rule="evenodd" d="M14.326 27.456L22.017 19.751L29.657 27.394L28.478 28.576L22.018 22.12L15.503 28.634L14.326 27.456Z" fill="url(#paint0_linear_6_152)"/>
<path fill-rule="evenodd" clip-rule="evenodd" d="M0 22.021L22.021 0L44.042 22.021L22.022 44.042L0 22.021ZM2.35 22.021L22.021 41.681L41.681 22.021L22.021 2.351L2.35 22.021Z" fill="url(#paint1_linear_6_152)"/>
<path fill-rule="evenodd" clip-rule="evenodd" d="M53.216 33.373C54.401 33.373 55.285 33.771 56.042 34.461C56.101 34.519 56.11 34.607 56.052 34.665L55.867 34.869C55.799 34.937 55.741 34.927 55.673 34.849C55.003 34.257 54.167 33.898 53.216 33.898C51.176 33.898 49.583 35.568 49.583 37.579C49.583 39.58 51.176 41.241 53.216 41.241C54.216 41.241 54.974 40.843 55.673 40.261C55.741 40.201 55.809 40.201 55.858 40.241L56.052 40.435C56.11 40.483 56.11 40.571 56.052 40.629C55.2927 41.3658 54.274 41.7743 53.216 41.766C50.884 41.766 49 39.92 49 37.579C48.9997 37.0257 49.1087 36.4779 49.3206 35.9668C49.5325 35.4557 49.8432 34.9915 50.2349 34.6008C50.6265 34.21 51.0915 33.9004 51.6031 33.6898C52.1146 33.4791 52.6627 33.3714 53.216 33.373Z" fill="#142129"/>
<path fill-rule="evenodd" clip-rule="evenodd" d="M61.501 38.638C62.036 38.638 62.551 38.803 62.677 38.852C62.677 37.822 62.57 37.317 61.647 37.317C60.88 37.317 60.355 37.589 60.248 37.627C60.161 37.657 60.103 37.617 60.073 37.53L60.015 37.395C59.986 37.288 60.035 37.239 60.093 37.22C60.123 37.2 60.715 36.87 61.686 36.87C63.104 36.87 63.163 37.715 63.163 38.91V41.494C63.163 41.581 63.094 41.649 63.017 41.649H62.871C62.793 41.649 62.755 41.601 62.735 41.523L62.687 41.095C62.385 41.377 61.812 41.765 61.064 41.765C60.2 41.765 59.539 41.163 59.539 40.211C59.539 39.318 60.277 38.638 61.501 38.638ZM61.123 41.309C61.832 41.309 62.453 40.872 62.677 40.581V39.298C62.3044 39.1418 61.905 39.0596 61.501 39.056C60.608 39.056 60.015 39.512 60.015 40.202C60.015 40.872 60.481 41.309 61.123 41.309Z" fill="#142129"/>
<path fill-rule="evenodd" clip-rule="evenodd" d="M67.252 37.142C67.252 37.055 67.32 36.987 67.398 36.987H67.543C67.611 36.987 67.67 37.035 67.679 37.113L67.728 37.589C67.898 37.3639 68.1183 37.1817 68.3713 37.0568C68.6243 36.932 68.9029 36.868 69.185 36.87C69.555 36.87 69.807 36.977 69.904 37.006C70.011 37.045 70.069 37.123 70.03 37.22L69.943 37.453C69.903 37.53 69.836 37.54 69.758 37.511C69.7 37.491 69.467 37.375 69.146 37.375C68.243 37.375 67.796 38.104 67.766 38.172V41.494C67.766 41.591 67.718 41.649 67.611 41.649H67.378C67.301 41.649 67.252 41.581 67.252 41.494V37.142Z" fill="#142129"/>
<path fill-rule="evenodd" clip-rule="evenodd" d="M73.245 34.315C73.245 34.101 73.42 33.907 73.634 33.907C73.857 33.907 74.032 34.101 74.032 34.315C74.0316 34.3667 74.021 34.4179 74.0007 34.4655C73.9805 34.5131 73.951 34.5562 73.914 34.5924C73.877 34.6285 73.8332 34.657 73.7852 34.6762C73.7371 34.6953 73.6857 34.7048 73.634 34.704C73.5309 34.7037 73.4321 34.6627 73.3592 34.5898C73.2863 34.5169 73.2453 34.4181 73.245 34.315ZM73.381 37.142C73.381 37.054 73.449 36.986 73.537 36.986H73.741C73.7819 36.9873 73.8207 37.0041 73.8495 37.0331C73.8784 37.0622 73.895 37.1011 73.896 37.142V41.494C73.896 41.591 73.848 41.649 73.741 41.649H73.508C73.43 41.649 73.381 41.581 73.381 41.494V37.142Z" fill="#142129"/>
<path fill-rule="evenodd" clip-rule="evenodd" d="M78.015 37.142C78.015 37.055 78.083 36.987 78.18 36.987H78.297C78.3302 36.9853 78.3628 36.9963 78.3881 37.0179C78.4134 37.0395 78.4295 37.0699 78.433 37.103L78.481 37.598C78.637 37.443 79.278 36.87 80.201 36.87C81.511 36.87 82.085 37.696 82.085 38.997V41.494C82.0837 41.5347 82.067 41.5734 82.0382 41.6022C82.0094 41.631 81.9707 41.6477 81.93 41.649H81.716C81.638 41.649 81.57 41.581 81.57 41.494V38.997C81.57 37.929 81.065 37.375 80.181 37.375C79.229 37.375 78.559 38.113 78.521 38.172V41.494C78.521 41.591 78.471 41.649 78.365 41.649H78.141C78.063 41.649 78.015 41.581 78.015 41.494V37.142Z" fill="#142129"/>
<path fill-rule="evenodd" clip-rule="evenodd" d="M86.437 40.008C86.31 39.842 86.077 39.396 86.077 38.842C86.077 37.715 86.854 36.87 88.117 36.87H90.021C90.118 36.87 90.177 36.938 90.177 37.025V37.152C90.177 37.21 90.137 37.278 90.07 37.288L89.234 37.346C89.458 37.462 89.954 37.87 89.954 38.842C89.954 39.872 89.214 40.775 88.02 40.775C87.32 40.775 86.903 40.513 86.748 40.357C86.66 40.387 86.155 40.639 86.155 41.193C86.155 41.737 86.621 41.873 87.078 41.873H88.768C89.768 41.873 90.488 42.319 90.488 43.359C90.488 44.349 89.535 45.253 88.118 45.253C86.524 45.253 85.844 44.32 85.844 43.533C85.844 42.844 86.33 42.455 86.573 42.31C86.34 42.261 85.669 41.95 85.669 41.25C85.669 40.474 86.31 40.076 86.437 40.008ZM88.097 44.777C89.157 44.777 89.953 44.165 89.953 43.369C89.953 42.834 89.623 42.339 88.768 42.339H87.301C87.185 42.359 86.359 42.679 86.359 43.475C86.359 44.116 86.971 44.777 88.098 44.777H88.097ZM89.467 38.832C89.467 37.851 88.807 37.336 88.03 37.336C87.136 37.336 86.553 37.987 86.553 38.832C86.553 39.638 87.058 40.318 88.03 40.318C88.904 40.318 89.467 39.658 89.467 38.832Z" fill="#142129"/>
<path fill-rule="evenodd" clip-rule="evenodd" d="M98.637 34.315C98.637 34.101 98.802 33.907 99.026 33.907C99.249 33.907 99.424 34.101 99.424 34.315C99.4236 34.3667 99.413 34.4179 99.3927 34.4655C99.3725 34.5131 99.343 34.5562 99.306 34.5924C99.269 34.6285 99.2252 34.657 99.1772 34.6762C99.1291 34.6953 99.0777 34.7048 99.026 34.704C98.9747 34.7047 98.9238 34.6951 98.8763 34.6758C98.8288 34.6564 98.7857 34.6278 98.7494 34.5916C98.7132 34.5553 98.6846 34.5122 98.6652 34.4647C98.6459 34.4172 98.6363 34.3663 98.637 34.315ZM98.773 37.142C98.773 37.054 98.841 36.986 98.919 36.986H99.133C99.1739 36.9873 99.2127 37.0041 99.2415 37.0331C99.2704 37.0622 99.287 37.1011 99.288 37.142V41.494C99.288 41.591 99.24 41.649 99.133 41.649H98.9C98.822 41.649 98.773 41.581 98.773 41.494V37.142Z" fill="#142129"/>
<path fill-rule="evenodd" clip-rule="evenodd" d="M103.144 41.076L103.261 40.891C103.291 40.833 103.387 40.804 103.465 40.872C103.582 40.969 104.058 41.329 104.708 41.329C105.378 41.329 105.826 40.959 105.826 40.503C105.826 39.969 105.301 39.745 104.524 39.453C103.698 39.163 103.096 38.803 103.096 38.084C103.096 37.569 103.543 36.87 104.621 36.87C105.233 36.87 105.699 37.093 105.932 37.24C105.967 37.264 105.991 37.3002 106 37.3414C106.009 37.3825 106.002 37.4256 105.981 37.462L105.913 37.589C105.903 37.6084 105.889 37.6255 105.872 37.6391C105.855 37.6528 105.836 37.6627 105.815 37.6681C105.793 37.6736 105.771 37.6746 105.75 37.6709C105.729 37.6673 105.708 37.6591 105.69 37.647C105.583 37.579 105.116 37.327 104.621 37.327C103.883 37.327 103.621 37.754 103.621 38.065C103.621 38.541 104.038 38.755 104.728 38.997C105.592 39.327 106.369 39.619 106.369 40.474C106.369 41.164 105.641 41.766 104.709 41.766C104.155 41.7708 103.617 41.5854 103.183 41.241C103.144 41.202 103.106 41.134 103.144 41.076Z" fill="#142129"/>
<path fill-rule="evenodd" clip-rule="evenodd" d="M114.821 34.315C114.821 34.101 114.995 33.907 115.209 33.907C115.432 33.907 115.607 34.101 115.607 34.315C115.607 34.3667 115.596 34.4179 115.576 34.4655C115.555 34.5131 115.526 34.5562 115.489 34.5924C115.452 34.6285 115.408 34.657 115.36 34.6762C115.312 34.6953 115.261 34.7048 115.209 34.704C115.106 34.7035 115.008 34.6623 114.935 34.5894C114.862 34.5166 114.821 34.4179 114.821 34.315ZM114.957 37.142C114.957 37.054 115.024 36.986 115.112 36.986H115.316C115.357 36.9873 115.396 37.0041 115.425 37.0331C115.453 37.0622 115.47 37.1011 115.471 37.142V41.494C115.471 41.591 115.423 41.649 115.316 41.649H115.083C115.005 41.649 114.957 41.581 114.957 41.494V37.142Z" fill="#142129"/>
<path fill-rule="evenodd" clip-rule="evenodd" d="M119.59 37.142C119.59 37.055 119.658 36.987 119.755 36.987H119.872C119.905 36.9853 119.938 36.9963 119.963 37.0179C119.988 37.0395 120.004 37.0699 120.008 37.103L120.056 37.598C120.212 37.443 120.853 36.87 121.776 36.87C123.086 36.87 123.66 37.696 123.66 38.997V41.494C123.659 41.5347 123.642 41.5734 123.613 41.6022C123.584 41.631 123.546 41.6477 123.505 41.649H123.291C123.213 41.649 123.145 41.581 123.145 41.494V38.997C123.145 37.929 122.64 37.375 121.756 37.375C120.804 37.375 120.134 38.113 120.096 38.172V41.494C120.096 41.591 120.046 41.649 119.94 41.649H119.716C119.638 41.649 119.59 41.581 119.59 41.494V37.142Z" fill="#142129"/>
<path fill-rule="evenodd" clip-rule="evenodd" d="M134.588 36.87C135.899 36.87 136.938 37.977 136.938 39.298C136.938 40.668 135.899 41.766 134.588 41.766C133.277 41.766 132.257 40.668 132.257 39.298C132.257 37.978 133.277 36.87 134.588 36.87ZM134.588 41.28C135.618 41.28 136.424 40.416 136.424 39.298C136.424 38.23 135.618 37.356 134.588 37.356C133.558 37.356 132.752 38.23 132.752 39.298C132.752 40.416 133.558 41.28 134.588 41.28Z" fill="#142129"/>
<path fill-rule="evenodd" clip-rule="evenodd" d="M140.649 37.142C140.65 37.1011 140.667 37.0623 140.696 37.0334C140.725 37.0046 140.764 36.988 140.805 36.987H141.019C141.096 36.987 141.164 37.055 141.164 37.142V39.638C141.164 40.726 141.669 41.27 142.554 41.27C143.515 41.27 144.059 40.513 144.088 40.454V37.143C144.088 37.046 144.146 36.988 144.244 36.988H144.448C144.535 36.988 144.603 37.056 144.603 37.143V41.495C144.603 41.5154 144.599 41.5357 144.592 41.5546C144.584 41.5736 144.573 41.5908 144.558 41.6052C144.544 41.6196 144.527 41.6311 144.508 41.6387C144.489 41.6464 144.468 41.6503 144.448 41.65H144.311C144.224 41.65 144.185 41.582 144.176 41.504L144.127 41.048C144.001 41.213 143.437 41.767 142.514 41.767C141.213 41.767 140.649 40.96 140.649 39.639V37.142Z" fill="#142129"/>
<path fill-rule="evenodd" clip-rule="evenodd" d="M148.741 37.142C148.741 37.055 148.809 36.987 148.887 36.987H149.032C149.1 36.987 149.159 37.035 149.168 37.113L149.217 37.589C149.387 37.3639 149.607 37.1817 149.86 37.0568C150.113 36.932 150.392 36.868 150.674 36.87C151.044 36.87 151.296 36.977 151.393 37.006C151.5 37.045 151.558 37.123 151.519 37.22L151.432 37.453C151.392 37.53 151.325 37.54 151.238 37.511C151.179 37.491 150.946 37.375 150.635 37.375C149.722 37.375 149.285 38.104 149.246 38.172V41.494C149.246 41.591 149.207 41.649 149.1 41.649H148.867C148.79 41.649 148.741 41.581 148.741 41.494V37.142Z" fill="#142129"/>
<path fill-rule="evenodd" clip-rule="evenodd" d="M159.747 37.142C159.747 37.055 159.815 36.987 159.912 36.987H160.029C160.062 36.9853 160.095 36.9963 160.12 37.0179C160.145 37.0395 160.161 37.0699 160.165 37.103L160.213 37.598C160.368 37.443 161.01 36.87 161.943 36.87C163.243 36.87 163.817 37.696 163.817 38.997V41.494C163.817 41.5145 163.813 41.5349 163.806 41.5539C163.798 41.5729 163.786 41.5901 163.772 41.6046C163.757 41.619 163.74 41.6304 163.721 41.638C163.702 41.6457 163.682 41.6494 163.661 41.649H163.457C163.437 41.6493 163.416 41.6454 163.397 41.6377C163.378 41.6301 163.361 41.6186 163.347 41.6042C163.332 41.5898 163.321 41.5726 163.313 41.5536C163.306 41.5347 163.302 41.5144 163.302 41.494V38.997C163.302 37.929 162.797 37.375 161.913 37.375C160.961 37.375 160.3 38.113 160.252 38.172V41.494C160.252 41.591 160.203 41.649 160.096 41.649H159.873C159.795 41.649 159.747 41.581 159.747 41.494V37.142Z" fill="#142129"/>
<path fill-rule="evenodd" clip-rule="evenodd" d="M169.47 38.638C170.005 38.638 170.52 38.803 170.646 38.852C170.646 37.822 170.539 37.317 169.616 37.317C168.849 37.317 168.324 37.589 168.217 37.627C168.13 37.657 168.071 37.617 168.052 37.53L167.994 37.395C167.955 37.288 168.004 37.239 168.062 37.22C168.091 37.2 168.683 36.87 169.655 36.87C171.073 36.87 171.131 37.715 171.131 38.91V41.494C171.131 41.581 171.063 41.649 170.986 41.649H170.84C170.762 41.649 170.723 41.601 170.704 41.523L170.655 41.095C170.355 41.377 169.781 41.765 169.033 41.765C168.178 41.765 167.508 41.163 167.508 40.211C167.508 39.318 168.246 38.638 169.47 38.638ZM169.091 41.309C169.801 41.309 170.422 40.872 170.646 40.581V39.298C170.273 39.1418 169.874 39.0596 169.47 39.056C168.577 39.056 167.994 39.512 167.994 40.202C167.994 40.872 168.45 41.309 169.091 41.309Z" fill="#142129"/>
<path fill-rule="evenodd" clip-rule="evenodd" d="M175.415 37.443H174.871C174.755 37.443 174.726 37.385 174.726 37.288V37.103C174.726 37.025 174.784 36.987 174.871 36.987H175.415V35.713C175.415 35.626 175.483 35.567 175.571 35.567L175.765 35.557C175.852 35.557 175.92 35.626 175.92 35.703V36.986H177.542C177.63 36.986 177.688 37.054 177.688 37.141V37.287C177.688 37.384 177.63 37.442 177.542 37.442H175.92V40.415C175.92 40.958 175.979 41.26 176.523 41.26C176.93 41.26 177.436 41.036 177.581 40.949C177.688 40.891 177.737 40.929 177.766 40.988L177.853 41.133C177.902 41.211 177.883 41.279 177.815 41.328C177.64 41.473 177.135 41.765 176.465 41.765C175.503 41.765 175.415 41.192 175.415 40.444V37.443Z" fill="#142129"/>
<path fill-rule="evenodd" clip-rule="evenodd" d="M181.341 37.142C181.341 37.055 181.409 36.987 181.496 36.987H181.7C181.741 36.9883 181.779 37.005 181.808 37.0338C181.837 37.0626 181.854 37.1013 181.855 37.142V39.638C181.855 40.726 182.351 41.27 183.235 41.27C184.206 41.27 184.74 40.513 184.779 40.454V37.143C184.779 37.046 184.838 36.988 184.925 36.988H185.139C185.216 36.988 185.284 37.056 185.284 37.143V41.495C185.284 41.582 185.216 41.65 185.139 41.65H184.993C184.906 41.65 184.867 41.582 184.857 41.504L184.808 41.048C184.682 41.213 184.128 41.767 183.206 41.767C181.894 41.767 181.341 40.96 181.341 39.639V37.142Z" fill="#142129"/>
<path fill-rule="evenodd" clip-rule="evenodd" d="M189.422 37.142C189.422 37.055 189.49 36.987 189.578 36.987H189.714C189.782 36.987 189.84 37.035 189.85 37.113L189.898 37.589C190.068 37.3638 190.289 37.1814 190.542 37.0566C190.795 36.9318 191.074 36.8679 191.356 36.87C191.725 36.87 191.987 36.977 192.074 37.006C192.181 37.045 192.24 37.123 192.21 37.22L192.113 37.453C192.074 37.53 192.006 37.54 191.929 37.511C191.87 37.491 191.637 37.375 191.317 37.375C190.413 37.375 189.967 38.104 189.937 38.172V41.494C189.937 41.591 189.889 41.649 189.782 41.649H189.549C189.471 41.649 189.422 41.581 189.422 41.494V37.142Z" fill="#142129"/>
<path fill-rule="evenodd" clip-rule="evenodd" d="M197.475 36.87C198.699 36.87 199.583 37.764 199.583 38.997C199.583 39.182 199.583 39.454 199.418 39.454H195.698C195.746 40.454 196.465 41.299 197.514 41.299C198.126 41.299 198.612 41.047 198.884 40.862C198.991 40.794 199.039 40.785 199.097 40.862L199.214 41.027C199.253 41.077 199.234 41.144 199.165 41.212C198.932 41.445 198.204 41.766 197.475 41.766C196.057 41.766 195.183 40.668 195.183 39.298C195.183 37.978 196.057 36.87 197.475 36.87ZM199.078 39.036C199.078 38.123 198.524 37.336 197.475 37.336C196.455 37.336 195.765 38.084 195.707 39.036H199.078Z" fill="#142129"/>
<path fill-rule="evenodd" clip-rule="evenodd" d="M59.724 29.818H57.597L53.352 17.598L53.633 17.2H57.247V8.797H52.04V29.817H50.02V7.001H57.655C58.131 7.001 58.519 7.156 58.82 7.458C59.122 7.758 59.277 8.148 59.277 8.623V17.278C59.277 18.376 58.539 18.93 57.062 18.93C56.907 18.93 56.693 18.92 56.412 18.91C56.13 18.89 55.926 18.881 55.799 18.881C57.121 22.524 58.422 26.165 59.724 29.818Z" fill="#142129"/>
<path fill-rule="evenodd" clip-rule="evenodd" d="M70.457 28.166C70.457 29.264 69.914 29.818 68.826 29.818H64.153C63.075 29.818 62.531 29.264 62.531 28.166V17.277C62.531 16.18 63.075 15.636 64.153 15.636H68.826C69.914 15.636 70.458 16.18 70.458 17.277V22.387L69.798 23.067H64.406V28.205H68.573V25.603H70.458V28.167L70.457 28.166ZM68.573 21.522V17.258H64.407V21.522H68.573Z" fill="#142129"/>
<path fill-rule="evenodd" clip-rule="evenodd" d="M81.677 29.818H79.773V29.429C79.006 29.536 78.238 29.633 77.461 29.73C76.519 29.847 75.751 29.905 75.178 29.905C74.12 29.905 73.585 29.381 73.585 28.332V23.153C73.585 22.065 74.139 21.521 75.237 21.521H79.802V17.257H75.625V19.666H73.751V17.276C73.751 16.179 74.294 15.635 75.382 15.635H80.045C81.133 15.635 81.677 16.179 81.677 17.276V29.816V29.818ZM79.802 28.05V23.038H75.47V28.147L79.802 28.05Z" fill="#142129"/>
<path fill-rule="evenodd" clip-rule="evenodd" d="M86.884 29.818H84.98V7H86.884V29.818Z" fill="#142129"/>
<path fill-rule="evenodd" clip-rule="evenodd" d="M103.757 29.818H96.257V7H103.659V8.797H98.288V17.317H103.183V19.133H98.288V28.03H103.756L103.757 29.818Z" fill="#142129"/>
<path fill-rule="evenodd" clip-rule="evenodd" d="M114.325 28.166C114.325 29.264 113.771 29.818 112.674 29.818H108.224C107.127 29.818 106.584 29.264 106.584 28.166V24.951H108.487V28.147H112.412V25.311L107.341 21.163C107.108 20.9859 106.921 20.7562 106.794 20.4927C106.668 20.2291 106.605 19.9393 106.612 19.647V17.277C106.612 16.18 107.156 15.636 108.254 15.636H112.644C113.742 15.636 114.296 16.18 114.296 17.277V20.114H112.412V17.316H108.487V19.783L113.607 23.941C114.082 24.32 114.325 24.835 114.325 25.485V28.166Z" fill="#142129"/>
<path fill-rule="evenodd" clip-rule="evenodd" d="M122.504 29.818H119.745C118.658 29.818 118.114 29.264 118.114 28.166V17.336H116.404V15.636H118.114V11.216H120.017V15.636H122.504V17.336H120.017V28.108H122.504V29.818Z" fill="#142129"/>
<path fill-rule="evenodd" clip-rule="evenodd" d="M132.995 29.818H131.081V29.429C130.314 29.536 129.547 29.633 128.779 29.73C127.827 29.847 127.069 29.905 126.497 29.905C125.428 29.905 124.903 29.381 124.903 28.332V23.153C124.903 22.065 125.457 21.521 126.555 21.521H131.111V17.257H126.943V19.666H125.059V17.276C125.059 16.179 125.603 15.635 126.701 15.635H131.363C132.451 15.635 132.995 16.179 132.995 17.276V29.816V29.818ZM131.111 28.05V23.038H126.788V28.147L131.111 28.05Z" fill="#142129"/>
<path fill-rule="evenodd" clip-rule="evenodd" d="M141.281 29.818H138.522C137.434 29.818 136.89 29.264 136.89 28.166V17.336H135.18V15.636H136.89V11.216H138.794V15.636H141.281V17.336H138.794V28.108H141.281V29.818Z" fill="#142129"/>
<path fill-rule="evenodd" clip-rule="evenodd" d="M151.684 28.166C151.684 29.264 151.14 29.818 150.052 29.818H145.39C144.302 29.818 143.758 29.264 143.758 28.166V17.277C143.758 16.18 144.302 15.636 145.39 15.636H150.052C151.14 15.636 151.684 16.18 151.684 17.277V22.387L151.034 23.067H145.633V28.205H149.81V25.603H151.684V28.166ZM149.81 21.522V17.258H145.633V21.522H149.81Z" fill="#142129"/>
<path fill-rule="evenodd" clip-rule="evenodd" d="M170.112 28.205C170.112 28.681 169.956 29.07 169.645 29.371C169.335 29.672 168.936 29.818 168.46 29.818H162.593C162.117 29.818 161.719 29.672 161.427 29.371C161.127 29.07 160.971 28.681 160.971 28.205V8.623C160.971 8.147 161.126 7.759 161.427 7.458C161.719 7.156 162.117 7.001 162.593 7.001H168.46C168.936 7.001 169.334 7.156 169.645 7.458C169.956 7.758 170.112 8.148 170.112 8.623V13.927H168.072V8.798H162.992V28.031H168.072V22.417H170.112V28.207V28.205Z" fill="#142129"/>
<path fill-rule="evenodd" clip-rule="evenodd" d="M181.437 29.818H179.534V29.429C178.766 29.536 177.999 29.633 177.232 29.73C176.28 29.847 175.512 29.905 174.939 29.905C173.88 29.905 173.346 29.381 173.346 28.332V23.153C173.346 22.065 173.9 21.521 174.997 21.521H179.563V17.257H175.386V19.666H173.511V17.276C173.511 16.179 174.055 15.635 175.143 15.635H179.806C180.894 15.635 181.438 16.179 181.438 17.276V29.816L181.437 29.818ZM179.563 28.05V23.038H175.231V28.147L179.563 28.05Z" fill="#142129"/>
<path fill-rule="evenodd" clip-rule="evenodd" d="M192.035 20.298H190.132V17.374L186.557 17.481V29.818H184.614V15.636H186.557V16.034C187.198 15.927 187.839 15.83 188.49 15.724C189.277 15.606 189.918 15.548 190.433 15.548C191.501 15.548 192.035 16.073 192.035 17.141V20.298Z" fill="#142129"/>
<path fill-rule="evenodd" clip-rule="evenodd" d="M202.429 28.166C202.429 29.264 201.885 29.818 200.797 29.818H196.135C195.047 29.818 194.503 29.264 194.503 28.166V17.277C194.503 16.18 195.047 15.636 196.135 15.636H200.797C201.885 15.636 202.429 16.18 202.429 17.277V22.387L201.779 23.067H196.387V28.205H200.554V25.603H202.429V28.166ZM200.554 21.522V17.258H196.387V21.522H200.554Z" fill="#142129"/>
<defs>
<linearGradient id="paint0_linear_6_152" x1="19.8298" y1="31.1479" x2="21.8117" y2="20.9914" gradientUnits="userSpaceOnUse">
<stop stop-color="#142129"/>
<stop offset="0.317" stop-color="#142129"/>
<stop offset="0.4" stop-color="#142129"/>
<stop offset="1" stop-color="#142129"/>
</linearGradient>
<linearGradient id="paint1_linear_6_152" x1="12.4639" y1="38.4927" x2="31.5781" y2="5.54929" gradientUnits="userSpaceOnUse">
<stop stop-color="#142129"/>
<stop offset="0.317" stop-color="#142129"/>
<stop offset="0.4" stop-color="#142129"/>
<stop offset="1" stop-color="#142129"/>
</linearGradient>
</defs>
</svg>
